<svg xmlns="http://www.w3.org/2000/svg" viewBox="0 0 512 512"><title>Whey_Protein</title><g id="artwork"><g id="_09_whey_protein" data-name="09_whey_protein"><rect x="412.32" y="136.94" width="34.63" height="12" transform="translate(87.4 439.4) rotate(-59.3)" style="fill:#ddd3d4"/><rect x="435.45" y="181.07" width="38.96" height="12" transform="translate(-22.12 67.17) rotate(-8.24)" style="fill:#ddd3d4"/><rect x="375.01" y="108.57" width="12" height="38.96" transform="translate(-20.74 140.65) rotate(-20.37)" style="fill:#ddd3d4"/><rect x="42.94" y="140.03" width="281.93" height="301.29" rx="47.95" style="fill:#c5b4b8"/><rect x="95.26" y="142.57" width="231.82" height="301.29" rx="47.95" style="fill:#dcd3d4"/><rect x="42.94" y="210.97" width="277.76" height="159.79" style="fill:#4966a2"/><path d="M266.78,211s-22.37,43.1-3.37,52.52l8.45,107.26h35L298.32,211Z" style="fill:#3d5890"/><path d="M239,319.41c-.08.46-.15.94-.21,1.5-.68,6.32-5.61,12.34-15.1,12.34h-.35c-6.18,2.93-31.58,12.29-57,12.29-10.65,0-23.75-3-31.12-13.75-1.06-1.54-3.34-3.25-4.71-6.25-3.19-7-.78-13.74-.17-15.32l7.82-5.6a13.15,13.15,0,0,0,10.35-1.45c5.67-3.37,15.28-6.29,29.39-1.82,8.24-5.37,21.59-3.25,25.3-1.81l8.64,1.25c-.92-3.79-10-6.5-6-28.38.6-3.32-.91-10.68-1.86-13.88-2.56-.08-4.64.29-7.8-.2a18.31,18.31,0,0,1-8.2-3.93c-9.12-7.36-7.75-16.05-2-22.45l5.09-2,1.71-.38c22.88-5.11,30.26,13.7,30.69,14.16l.64.81C225.2,246.15,245.58,284.32,239,319.41Z" style="fill:#f4b4b1"/><rect x="42.94" y="370.75" width="277.76" height="20.72" style="fill:#e08476"/><rect x="77.62" y="68.65" width="212.57" height="49.04" rx="3.98" style="fill:#4966a2"/><rect x="93.88" y="119.22" width="184.82" height="20.72" style="fill:#e08476"/><path d="M419.14,257.36H306c-4.64,0-8.19-4.73-7.51-10l4.84-37.23a219,219,0,0,1,119.86,0q1.77,18.78,3.55,37.57C427.17,252.86,423.66,257.36,419.14,257.36Z" style="fill:#dcd3d4"/><path d="M306.83,204v-8.37c0-10.16,9.06-18.41,20.25-18.41a21.27,21.27,0,0,1,14.33,5.39,17.58,17.58,0,0,1,5.93,13v3.64" style="fill:#f2463e"/><path d="M348,202.39V187a5.21,5.21,0,0,1,5.21-5.21h47.3a5.21,5.21,0,0,1,5.21,5.21v15.37" style="fill:#f4b4b1"/><path d="M408.28,441.91H312.83a.43.43,0,0,1-.43-.42L303,257.25a.43.43,0,0,1,.43-.47H417a.44.44,0,0,1,.43.47l-8.72,184.24A.45.45,0,0,1,408.28,441.91Z" style="fill:#ffeef0"/><path d="M415.17,312.85s-2.92-9-49.75-4.47-60.19-9.22-60.19-9.22L317,425.73h88.66Z" style="fill:#f4b4b1"/><path d="M387,347.5a6,6,0,1,1-6-6A6,6,0,0,1,387,347.5Z" style="fill:#e08476"/><path d="M388.78,392.58a6,6,0,1,1-6-6A6,6,0,0,1,388.78,392.58Z" style="fill:#e08476"/><path d="M347.49,376.22a6,6,0,1,1,3.1-7.84A6,6,0,0,1,347.49,376.22Z" style="fill:#e08476"/><path d="M367.19,339.4a6,6,0,1,1,3.1-7.84A6,6,0,0,1,367.19,339.4Z" style="fill:#e08476"/><path d="M426.48,258.4a15.4,15.4,0,0,0,3.83-11.83l-3.93-41.66-3.95-1.12c-4.51-1.28-9-2.4-13.6-3.4V190.12a11.22,11.22,0,0,0-11.2-11.21h-47.3a11.12,11.12,0,0,0-6,1.78c-.35-.35-.7-.69-1.07-1a26.78,26.78,0,0,0-11.74-6.17,53.85,53.85,0,0,0-47.06-39.24v-9.13h3.06a10,10,0,0,0,10-10V74.07a10,10,0,0,0-10-10H82.88a10,10,0,0,0-10,10v41.07a10,10,0,0,0,10,10h3.06v9.13a53.92,53.92,0,0,0-49,53.62v205.6a53.91,53.91,0,0,0,53.85,53.84h188.8a53.78,53.78,0,0,0,26.58-7l.07,1.52a6.45,6.45,0,0,0,6.43,6.1h95.45a6.43,6.43,0,0,0,6.43-6.14l6.13-129.64.23-.07c-.06-.18-.12-.37-.2-.56l2.39-50.39A13.62,13.62,0,0,0,426.48,258.4Zm-8.11-10.7a3.45,3.45,0,0,1-.77,2.62,1.2,1.2,0,0,1-.81.46H303.61a1.18,1.18,0,0,1-.84-.49,3.5,3.5,0,0,1-.73-2.73l4.33-33.26a213.68,213.68,0,0,1,54.49-7.1h.27a213.68,213.68,0,0,1,54.08,7.06Zm-7.68,21.51H393.76v12h16.37l-1.07,22.58c-8.36-2.14-22.07-2.89-44.24-.65-35.15,3.56-50-4.19-54-7l-.76-15h72.8v-12H309.4l-.33-6.43H411Zm-13.86-78.3v7.2a223.52,223.52,0,0,0-35.68-2.91q-5,0-10,.23v-4.52Zm-57.76,5.38a225.81,225.81,0,0,0-28.46,4.61v-3.78c0-6.84,6.39-12.41,14.25-12.41a15.21,15.21,0,0,1,10.29,3.83A11.62,11.62,0,0,1,339.07,196.29ZM84.89,113.12v-37H285.46v37H84.89Zm187.53,12V134H97.94v-8.91ZM90.58,146H279.79a41.86,41.86,0,0,1,39.06,27.33c-11.59,2.54-20.24,12.22-20.24,23.76V204l-3.12.89v.1H274.73v12h19.19l-3.78,29a15.45,15.45,0,0,0,3.61,12.2,13.89,13.89,0,0,0,3.21,2.71l5.32,103.83H48.93V217H256.06V205H48.93v-17.1A41.89,41.89,0,0,1,90.58,146Zm189,289.28H90.78a41.88,41.88,0,0,1-41.65-37.83h54.61v-12H48.93v-8.73h254l.45,8.73H121.21v12H304l1.48,28.88A41.75,41.75,0,0,1,279.58,435.31Zm38.37.6-.22-4.18H403l-.2,4.18Zm85.61-16.18H317.12L311.5,310.11c9.56,4,26.45,7.81,54.53,5,27.83-2.82,38.68-.35,42.44,1.12Z" style="fill:#142546"/><rect x="401.46" y="136.94" width="34.63" height="12" transform="translate(82.1 430.08) rotate(-59.31)" style="fill:#142546"/><rect x="428.33" y="172.71" width="38.96" height="12" transform="translate(-21 66.06) rotate(-8.24)" style="fill:#142546"/><rect x="368.23" y="116.21" width="12" height="38.96" transform="translate(-23.83 138.77) rotate(-20.37)" style="fill:#142546"/><path d="M224.35,235.19l-.31-.5-.4-.42c-.48-.52-12.11-12.5-37.39-6.74l-1.88.43-1.28,1.44a22.1,22.1,0,0,0-2.17,26.19l.31.5a16.22,16.22,0,0,0,9.24,7.06,37.78,37.78,0,0,0,9.35,1.55,27.29,27.29,0,0,1,.83,11.24c-1,7.34-.68,12.95.34,17.25a9.15,9.15,0,0,1-.93-.29,23.14,23.14,0,0,0-21.87,2.35c-15.59-5.05-26.2-1.75-32.47,2.06A14.38,14.38,0,0,1,134.29,299l-.69-.21-3.39,11.51.69.21a25.55,25.55,0,0,0,7.16,1A26.77,26.77,0,0,0,152,307.57c3.32-2,8.66-3.75,16.57-2.4-.4.6-.81,1.21-1.22,1.85l10.16,6.39c5.46-8.68,11.74-11.92,18.16-9.36a22.34,22.34,0,0,0,11.27,1.27l1.77-.24a13.75,13.75,0,0,0,2,1.06,6.67,6.67,0,0,1,3.28,3.16l10.72-5.39a18.79,18.79,0,0,0-9.15-8.75c-1.86-.82-4.57-5.45-2.93-17.62a39.54,39.54,0,0,0-.89-15,17.7,17.7,0,0,0,6.54-4.79l-9.4-7.47c0,.05-4.17,4.51-15,1.37a4.29,4.29,0,0,1-2.41-1.89l-.32-.51a10,10,0,0,1-.06-10.44c14.67-2.77,21.86,2.06,23.56,3.44,3.22,5.41,24.49,42.71,18.52,75.36-.14.8-.26,1.64-.36,2.58-.18,1.69-1,3.57-5.91,3.16l-1.71-.14-1.53.78c-.57.3-57.33,29-88.29,7.66l-6.82,9.88c10.65,7.35,23.34,10,36.06,10,28,0,56.23-12.8,63.06-16.11,10.76.17,16.31-6.72,17.07-13.94.07-.64.15-1.19.24-1.69C252.16,280.09,225.49,237,224.35,235.19Z" style="fill:#142546"/></g></g></svg>